<?xml version="1.0" standalone="no"?>
<!DOCTYPE svg PUBLIC "-//W3C//DTD SVG 20010904//EN"
 "http://www.w3.org/TR/2001/REC-SVG-20010904/DTD/svg10.dtd">
<svg version="1.0" xmlns="http://www.w3.org/2000/svg"
 width="2048.000000pt" height="2048.000000pt" viewBox="0 0 2048.000000 2048.000000"
 preserveAspectRatio="xMidYMid meet">

<g transform="translate(0.000000,2048.000000) scale(0.100000,-0.100000)"
fill="#000000" stroke="none">
<path d="M9640 19629 c-2615 -171 -4972 -1364 -6635 -3359 -825 -990 -1444
-2167 -1799 -3421 -374 -1319 -452 -2702 -231 -4049 156 -944 435 -1806 861
-2660 475 -951 1048 -1740 1810 -2490 338 -333 574 -536 946 -815 1345 -1010
2957 -1642 4628 -1814 375 -39 519 -46 970 -46 525 0 788 17 1255 80 1691 230
3300 925 4624 1999 466 377 961 870 1346 1341 501 611 964 1356 1284 2070 237
526 447 1144 575 1691 283 1204 328 2406 135 3614 -278 1745 -1028 3345 -2204
4697 -152 175 -650 675 -820 824 -660 578 -1314 1016 -2070 1389 -1126 555
-2333 873 -3602 950 -198 12 -887 11 -1073 -1z m955 -219 c1286 -63 2498 -376
3625 -935 677 -337 1246 -706 1813 -1180 399 -333 847 -784 1178 -1185 1174
-1422 1886 -3153 2053 -4990 18 -197 36 -503 36 -617 l0 -83 -1529 0 -1529 0
-6 23 c-3 12 -6 67 -6 122 0 89 -20 343 -36 465 -128 986 -441 1830 -977 2634
-385 579 -909 1126 -1457 1521 -811 586 -1708 952 -2675 1094 -328 49 -501 61
-880 61 -329 0 -532 -12 -793 -45 -1092 -142 -2134 -588 -3002 -1286 -374
-301 -752 -691 -1039 -1074 -579 -773 -972 -1691 -1126 -2629 -42 -255 -75
-563 -75 -707 0 -47 -3 -107 -6 -133 l-7 -46 -1538 0 -1539 0 0 103 c0 129 15
392 35 612 213 2322 1307 4473 3065 6020 765 674 1689 1239 2650 1620 966 383
1929 587 3015 638 154 8 570 6 750 -3z m-70 -3285 c408 -27 673 -66 1025 -151
1295 -310 2431 -1043 3250 -2094 489 -628 848 -1364 1046 -2140 151 -592 210
-1218 169 -1785 -35 -492 -100 -859 -230 -1300 -392 -1325 -1230 -2452 -2395
-3221 -1125 -742 -2517 -1071 -3865 -914 -1590 186 -3032 1018 -3994 2304
-507 677 -866 1477 -1040 2317 -135 655 -155 1315 -59 1984 123 864 438 1691
911 2400 231 346 444 604 746 905 449 449 915 788 1456 1062 320 162 507 240
835 348 494 163 974 254 1530 289 203 13 381 12 615 -4z m-6955 -7190 c0 -4 7
-30 44 -167 15 -56 43 -158 76 -283 11 -41 29 -109 40 -152 12 -42 20 -94 18
-117 l-3 -40 -85 -23 c-47 -12 -102 -22 -122 -23 -35 0 -38 3 -47 38 -6 20
-33 123 -61 227 -52 195 -67 238 -81 229 -5 -3 -32 -11 -61 -19 -29 -8 -172
-46 -318 -85 -146 -38 -350 -93 -455 -121 -104 -28 -221 -60 -260 -71 -38 -11
-95 -21 -125 -22 l-55 -1 -22 80 c-12 44 -22 99 -22 122 -1 41 0 42 42 53 23
6 80 22 127 34 47 13 157 43 245 66 268 71 445 119 560 150 385 106 475 128
518 129 26 0 47 -1 47 -4z m13564 -121 c25 -47 46 -96 46 -109 0 -15 -21 -41
-64 -79 -153 -134 -227 -326 -192 -497 24 -112 68 -192 151 -276 307 -308 792
-152 882 284 18 87 16 109 -24 235 -23 71 -14 86 84 146 112 69 137 68 165 -3
43 -107 51 -156 51 -310 0 -135 -3 -158 -26 -228 -85 -257 -290 -446 -565
-523 -32 -10 -113 -19 -187 -21 -108 -4 -143 -2 -211 15 -228 57 -405 202
-512 417 -104 209 -112 483 -20 683 73 161 263 352 349 352 24 0 33 -10 73
-86z m-13592 -1831 c19 -32 102 -170 183 -308 232 -392 247 -416 254 -413 4 2
127 74 273 161 158 93 276 157 291 157 22 0 34 -13 77 -86 84 -142 120 -105
-400 -412 -245 -144 -537 -317 -650 -384 -113 -67 -219 -124 -236 -126 -30 -4
-34 0 -83 82 -40 65 -52 94 -49 118 3 35 -12 25 340 231 91 54 171 103 176
110 8 9 1 28 -22 67 -19 30 -100 168 -181 305 -81 138 -167 282 -191 321 -29
48 -44 83 -44 106 0 31 5 37 78 80 51 30 89 46 113 47 34 1 39 -3 71 -56z
m12842 -29 c13 -5 16 -26 16 -126 0 -112 -1 -120 -20 -125 -105 -28 -246 -135
-317 -241 -46 -70 -83 -193 -83 -276 0 -200 123 -399 297 -482 59 -28 73 -39
73 -57 0 -13 -26 -61 -57 -108 -55 -80 -60 -84 -98 -87 -58 -4 -150 53 -256
158 -159 158 -228 330 -229 572 0 158 19 247 79 366 96 191 270 334 476 391
79 21 97 24 119 15z m738 -480 c404 -273 393 -258 218 -315 -63 -21 -131 -38
-150 -38 -28 -1 -65 19 -191 104 -86 58 -159 105 -162 105 -3 0 -43 -54 -88
-120 -99 -145 -98 -145 -220 -62 -67 45 -85 63 -87 84 -3 22 26 72 134 230
160 238 160 238 190 238 14 0 158 -91 356 -226z m-11674 -955 c97 -89 222
-203 277 -254 55 -50 142 -130 193 -176 117 -106 118 -113 26 -215 -91 -102
-97 -101 -228 20 -55 51 -155 142 -222 202 -396 358 -414 376 -414 406 0 21
16 46 62 96 34 37 67 70 73 74 31 23 61 3 233 -153z m-584 -366 c61 -54 587
-536 603 -551 28 -28 14 -61 -58 -137 -55 -57 -78 -75 -98 -75 -40 0 -675 579
-679 620 -3 22 10 42 65 103 82 91 104 96 167 40z m-329 -600 c88 -80 180
-164 205 -186 25 -22 74 -68 110 -101 36 -34 111 -103 168 -154 73 -67 102
-101 102 -117 0 -15 -26 -50 -71 -99 -57 -61 -77 -76 -100 -76 -23 0 -92 58
-396 337 -282 257 -369 342 -371 362 -4 38 128 181 166 181 20 -1 66 -37 187
-147z m9538 2 c28 -12 21 -71 -20 -169 l-37 -88 -57 6 c-145 15 -337 -102
-379 -230 -11 -31 -9 -41 15 -90 33 -67 86 -107 142 -106 21 1 104 24 185 52
124 43 163 52 245 57 154 9 258 -30 353 -133 120 -131 152 -375 69 -542 -57
-116 -212 -246 -355 -298 -61 -22 -289 -32 -346 -15 -49 15 -49 35 1 161 l39
95 75 1 c160 3 293 83 337 202 19 50 20 61 9 101 -15 54 -69 117 -117 137 -54
22 -100 17 -233 -25 -290 -93 -461 -73 -592 69 -82 89 -102 146 -102 295 0
115 1 123 33 189 49 105 168 218 293 280 52 26 114 51 139 56 50 10 275 7 303
-5z m-1639 -738 c14 -51 26 -109 26 -129 0 -34 -2 -36 -47 -48 -179 -47 -428
-121 -436 -129 -6 -6 -6 -20 0 -38 6 -15 16 -46 22 -68 6 -22 24 -89 41 -150
17 -60 35 -128 41 -150 6 -22 15 -51 19 -65 8 -27 14 -46 60 -215 16 -60 34
-123 39 -140 4 -16 14 -50 21 -75 7 -25 16 -56 20 -70 4 -14 18 -63 30 -110
12 -47 26 -95 31 -108 5 -13 9 -38 9 -57 0 -33 -2 -35 -52 -49 -110 -31 -134
-36 -170 -36 -42 0 -30 -30 -117 285 -27 99 -70 252 -95 340 -152 539 -236
848 -236 874 0 20 6 31 18 35 9 2 123 34 252 70 129 36 282 79 340 95 160 45
152 48 184 -62z m-4039 8 c151 -41 298 -139 395 -261 47 -59 60 -83 60 -109 0
-32 -4 -36 -84 -79 -45 -26 -95 -46 -110 -46 -20 0 -46 21 -109 84 -193 195
-420 229 -644 94 -178 -107 -289 -346 -249 -535 44 -215 206 -378 424 -429 77
-18 145 -14 230 16 99 35 109 31 170 -64 66 -105 69 -140 15 -163 -87 -36
-173 -55 -280 -60 -196 -10 -354 31 -489 126 -247 174 -380 465 -344 756 24
202 95 343 240 478 115 106 261 178 430 211 53 10 286 -3 345 -19z m1975 -300
c9 -16 52 -97 95 -180 43 -82 97 -186 120 -230 23 -44 75 -143 115 -220 40
-77 90 -171 110 -210 21 -38 63 -118 94 -178 31 -59 81 -154 111 -211 135
-257 139 -271 83 -281 -18 -3 -89 -5 -157 -3 l-124 3 -241 483 -242 484 -36
-84 c-20 -45 -50 -112 -66 -148 -54 -117 -84 -184 -122 -270 -21 -47 -49 -110
-63 -140 -13 -30 -35 -77 -47 -105 -12 -27 -34 -75 -47 -105 -14 -30 -34 -74
-44 -97 l-18 -43 -161 0 -160 0 0 24 c0 13 36 99 81 192 45 93 96 201 114 239
18 39 62 131 98 205 84 174 168 351 224 468 24 51 74 157 112 235 37 78 74
157 82 175 12 28 19 32 43 30 21 -2 34 -12 46 -33z"/>
<path d="M10323 18608 c-6 -7 -36 -62 -68 -123 -32 -60 -79 -150 -105 -200
-26 -49 -80 -153 -120 -230 -69 -132 -99 -191 -219 -417 -26 -51 -83 -160
-126 -243 -43 -82 -97 -185 -119 -227 -60 -113 -59 -113 140 -113 l159 0 235
472 c129 260 238 473 241 473 5 0 34 -59 95 -196 13 -29 41 -91 63 -139 23
-48 41 -88 41 -90 0 -2 23 -51 50 -110 28 -59 50 -108 50 -110 0 -2 20 -46 45
-99 24 -53 47 -106 50 -118 4 -13 19 -41 34 -63 31 -46 57 -53 222 -54 81 -1
98 2 112 17 10 10 17 21 17 24 0 3 -31 70 -69 149 -38 79 -89 187 -114 239
-24 52 -75 158 -112 235 -37 77 -82 172 -100 210 -18 39 -61 129 -95 200 -63
131 -146 305 -203 425 -16 36 -37 73 -45 83 -18 20 -45 22 -59 5z"/>
<path d="M12047 18449 c-8 -13 -29 -78 -47 -144 -18 -66 -65 -237 -105 -380
-204 -723 -265 -945 -265 -963 0 -32 30 -48 139 -76 l103 -27 24 22 c13 12 24
30 24 40 0 10 4 28 9 41 5 13 14 41 20 63 15 58 50 184 62 230 6 22 15 51 19
65 4 14 13 43 19 65 6 22 24 90 41 150 34 123 49 176 61 220 46 157 89 316 89
327 0 8 6 22 13 31 11 15 32 11 237 -48 123 -36 234 -65 246 -65 31 0 39 14
68 115 29 99 32 138 14 152 -7 5 -67 25 -133 43 -66 18 -133 36 -150 41 -170
50 -394 111 -429 115 -39 6 -46 4 -59 -17z"/>
<path d="M8000 18368 c-207 -56 -328 -133 -451 -285 -242 -302 -245 -724 -6
-1000 114 -133 250 -222 417 -274 64 -20 95 -23 220 -23 124 1 157 5 225 25
151 46 285 139 393 272 64 80 75 114 46 138 -31 26 -208 99 -226 93 -10 -3
-31 -24 -47 -48 -63 -91 -165 -157 -295 -191 -76 -20 -135 -19 -226 4 -226 58
-369 227 -395 468 -14 128 48 298 144 394 143 143 331 188 539 130 l84 -24 23
24 c27 28 105 172 105 194 0 29 -89 70 -218 100 -71 17 -276 19 -332 3z"/>
<path d="M13969 17625 c-85 -23 -135 -52 -202 -115 -92 -86 -129 -163 -135
-281 -8 -157 47 -260 228 -428 61 -57 123 -124 137 -149 75 -127 -15 -272
-168 -272 -102 0 -230 84 -278 182 -28 60 -54 82 -83 74 -13 -4 -61 -11 -107
-16 -110 -12 -130 -29 -112 -92 43 -142 172 -291 316 -365 110 -56 176 -73
285 -73 113 0 181 19 259 71 167 112 253 294 221 471 -23 123 -86 212 -248
347 -154 129 -182 189 -130 283 30 57 95 91 156 85 47 -5 172 -63 212 -99 39
-35 78 -90 85 -120 12 -49 24 -52 143 -39 132 15 157 28 148 79 -12 76 -75
183 -155 263 -106 105 -214 163 -364 194 -84 17 -144 17 -208 0z"/>
<path d="M4844 16747 c-256 -232 -632 -578 -653 -601 -31 -33 -26 -42 74 -150
63 -69 76 -79 94 -70 36 16 771 697 771 714 0 22 -158 190 -178 190 -9 -1 -58
-38 -108 -83z"/>
<path d="M4960 15955 c-184 -168 -336 -314 -338 -324 -4 -26 145 -191 173
-191 26 0 695 606 695 629 0 23 -158 191 -178 191 -9 0 -168 -138 -352 -305z"/>
<path d="M5738 15762 c-457 -412 -668 -609 -668 -625 0 -27 150 -187 175 -187
20 0 173 135 580 509 127 117 191 182 193 198 3 18 -16 45 -74 108 -42 47 -84
85 -93 85 -9 0 -60 -39 -113 -88z"/>
<path d="M16330 15245 c-113 -24 -199 -60 -285 -118 -54 -36 -125 -111 -125
-132 0 -36 128 -215 153 -215 6 0 36 24 67 54 97 93 206 136 345 136 182 0
355 -87 444 -224 58 -88 83 -170 90 -291 l6 -100 45 -22 c25 -12 76 -31 113
-44 l68 -23 20 21 c31 31 45 159 30 279 -22 181 -92 318 -235 459 -125 123
-239 182 -418 220 -85 17 -239 18 -318 0z"/>
<path d="M3292 15053 c-38 -55 -102 -172 -102 -186 0 -25 47 -58 309 -212 168
-99 250 -153 247 -162 -3 -7 -103 -178 -223 -380 -170 -286 -218 -376 -218
-402 0 -32 5 -38 85 -87 90 -56 128 -65 152 -36 13 15 322 534 417 699 20 35
41 63 46 63 6 0 124 -68 264 -150 140 -83 264 -150 276 -150 12 0 29 8 37 18
27 31 108 178 108 195 0 22 -26 38 -550 347 -245 145 -524 310 -620 367 -96
56 -182 103 -192 103 -9 0 -25 -12 -36 -27z"/>
<path d="M16448 14439 c-113 -76 -113 -79 -13 -224 41 -60 75 -114 75 -120 0
-6 -72 -60 -161 -120 -91 -61 -164 -118 -169 -130 -5 -12 -12 -79 -15 -148 -8
-128 -2 -157 29 -157 7 0 167 105 356 233 240 162 346 238 348 252 2 13 -54
104 -150 245 -183 269 -168 260 -300 169z"/>
<path d="M17298 13210 c-292 -49 -553 -297 -633 -600 -23 -87 -31 -254 -16
-332 40 -210 161 -391 346 -518 50 -34 75 -38 97 -12 17 18 98 202 98 220 0 6
-24 27 -53 45 -203 130 -268 434 -141 666 53 99 163 190 279 232 88 33 244 33
338 0 175 -60 289 -193 336 -392 15 -60 11 -151 -10 -234 -7 -27 -13 -68 -13
-90 l-1 -39 85 -47 c85 -48 139 -60 157 -36 27 35 62 155 83 285 21 130 -22
320 -102 457 -54 90 -182 218 -281 279 -166 103 -383 147 -569 116z"/>
<path d="M2222 12838 c-11 -14 -192 -680 -192 -708 0 -32 34 -46 220 -94 102
-26 223 -59 270 -72 78 -22 834 -223 958 -255 38 -9 58 -10 70 -3 10 6 29 53
46 108 26 92 27 98 11 116 -9 10 -31 22 -49 25 -17 4 -40 13 -52 20 -11 7 -43
16 -70 20 -27 4 -112 24 -189 45 -185 50 -477 128 -703 188 -100 27 -185 52
-189 56 -6 6 9 76 48 216 77 280 77 275 48 293 -26 16 -167 57 -198 57 -10 0
-23 -6 -29 -12z"/>
<path d="M9945 15839 c-1105 -45 -2202 -441 -3094 -1117 -404 -306 -816 -722
-1107 -1117 -462 -628 -783 -1326 -947 -2060 -106 -470 -144 -852 -134 -1340
12 -583 99 -1091 282 -1640 350 -1053 1027 -1993 1920 -2665 1404 -1057 3240
-1379 4930 -863 693 211 1362 574 1935 1051 292 244 592 555 835 867 482 619
853 1415 1020 2190 95 440 131 818 122 1285 -10 477 -59 840 -173 1279 -437
1681 -1640 3059 -3249 3721 -739 304 -1531 443 -2340 409z m1983 -1009 c20
-19 22 -31 22 -115 0 -52 3 -95 6 -95 4 0 32 15 63 34 114 69 292 107 345 73
13 -9 27 -24 30 -34 3 -10 -41 -164 -98 -342 l-103 -324 97 -129 c54 -71 118
-168 142 -215 l43 -86 0 -151 c-1 -118 -6 -176 -24 -267 l-24 -115 76 -105
c42 -58 78 -116 82 -130 3 -14 1 -56 -5 -94 -45 -280 -235 -517 -486 -606 -84
-30 -199 -48 -259 -42 l-52 5 -20 -228 c-15 -170 -17 -233 -9 -245 6 -9 38
-52 72 -95 112 -145 182 -284 227 -449 31 -116 31 -361 -1 -488 -44 -176 -131
-350 -261 -523 -77 -104 -256 -287 -357 -367 l-71 -56 -41 -123 c-120 -361
-128 -740 -26 -1233 45 -221 44 -217 95 -230 62 -16 104 -40 157 -88 82 -76
131 -221 82 -247 -11 -6 -20 -14 -20 -19 0 -4 37 -15 82 -25 154 -33 260 -98
344 -210 57 -75 115 -189 143 -280 36 -117 10 -140 -204 -178 -117 -20 -162
-23 -445 -23 -205 0 -352 5 -422 13 l-107 14 -123 -61 c-280 -138 -629 -210
-1178 -242 -492 -29 -1500 19 -1836 87 -203 41 -383 108 -504 189 -192 127
-300 321 -300 536 0 116 43 286 102 402 l19 38 -35 117 c-107 357 -188 768
-228 1152 -16 159 -16 661 0 795 75 618 246 1037 585 1433 73 85 202 208 275
262 33 24 34 40 2 40 -24 0 -70 55 -70 84 0 40 36 72 137 124 302 154 695 242
1159 259 l182 6 41 96 c104 243 299 500 489 642 31 24 60 45 64 48 4 4 23 67
42 141 136 533 418 932 806 1143 138 75 343 134 525 152 l70 7 90 87 c142 137
314 238 475 280 96 25 112 25 138 1z"/>
<path d="M11780 14693 c-55 -20 -163 -82 -226 -129 -96 -72 -243 -228 -327
-346 -73 -104 -97 -119 -137 -89 -33 24 -36 54 -11 97 12 19 21 37 21 40 0 20
-208 -35 -319 -84 -313 -138 -550 -403 -704 -786 -50 -125 -102 -305 -113
-394 -8 -63 -27 -90 -97 -136 -216 -144 -417 -423 -532 -739 -9 -26 -27 -54
-38 -62 -17 -10 -85 -14 -277 -18 -342 -6 -572 -43 -860 -137 -162 -53 -308
-130 -247 -130 26 0 57 -45 57 -82 0 -42 -11 -56 -110 -135 -213 -172 -389
-397 -520 -668 -141 -291 -219 -595 -250 -979 -49 -616 95 -1496 361 -2204 21
-57 39 -117 39 -131 0 -56 -71 -97 -119 -70 -27 15 -46 47 -82 133 -12 31 -23
46 -29 40 -5 -5 -15 -45 -22 -88 -42 -270 121 -472 472 -584 183 -58 374 -83
945 -124 244 -17 1006 -17 1195 0 510 46 844 131 1036 263 22 15 53 31 68 35
52 13 188 208 173 248 -3 8 -18 23 -34 33 -41 27 -358 24 -583 -6 -781 -101
-843 -106 -1290 -98 -348 7 -472 14 -950 52 -168 14 -315 25 -328 25 -26 0
-72 41 -72 64 0 8 10 27 23 41 l22 27 320 -26 c600 -48 646 -50 1100 -51 l450
0 269 35 269 34 44 56 c72 91 181 282 233 408 321 777 -21 1503 -980 2082
-131 79 -140 87 -140 121 0 35 44 72 73 63 28 -9 180 -101 313 -190 215 -144
457 -357 596 -524 357 -430 468 -944 315 -1445 -46 -150 -129 -327 -213 -458
-52 -80 -54 -91 -16 -84 15 3 107 12 204 18 209 15 320 5 405 -36 123 -61 129
-189 16 -346 -19 -28 -33 -52 -30 -55 14 -15 272 -26 467 -20 216 5 357 19
375 37 15 15 -49 131 -106 193 -87 96 -187 132 -384 142 -73 4 -128 12 -142
20 -60 38 -208 546 -263 905 -81 524 -23 979 173 1364 89 175 177 308 220 332
32 18 50 16 90 -11 l36 -25 49 67 c114 154 172 266 218 418 24 78 27 107 28
229 0 117 -3 153 -22 219 -45 155 -137 318 -256 454 -38 43 -56 72 -56 90 -1
67 52 639 61 660 5 13 23 29 41 36 27 12 40 11 102 -6 176 -50 394 35 517 201
52 70 106 193 115 265 6 43 4 48 -75 158 -81 112 -82 114 -78 163 3 28 15 93
26 145 30 137 38 294 18 353 -18 53 -94 171 -176 271 -80 100 -91 117 -91 152
0 17 10 44 21 58 23 29 193 545 184 555 -11 10 -109 -30 -172 -71 -70 -45
-130 -106 -137 -140 -3 -13 -10 -95 -16 -183 -14 -194 -22 -228 -55 -243 -33
-15 -73 3 -82 36 -3 14 -1 88 6 166 25 292 40 520 35 528 -6 9 -12 9 -34 1z
m201 -1300 c32 -12 46 -26 60 -57 10 -23 19 -49 19 -58 0 -29 -28 -21 -45 12
-22 42 -33 37 -28 -12 3 -24 -2 -70 -11 -103 -14 -54 -14 -61 1 -77 21 -24 4
-43 -30 -34 -38 9 -85 53 -117 110 -54 94 -35 187 44 222 41 18 58 17 107 -3z"/>
<path d="M11870 13335 c-32 -34 -25 -115 14 -153 l26 -27 0 103 c0 56 -4 102
-8 102 -5 0 -19 -11 -32 -25z"/>
<path d="M11380 7952 c0 -22 57 -193 68 -203 4 -3 31 0 60 9 57 16 64 30 38
80 -19 35 -83 96 -123 116 -40 20 -43 20 -43 -2z"/>
</g>
</svg>
